<svg xmlns="http://www.w3.org/2000/svg" xmlns:xlink="http://www.w3.org/1999/xlink" width="264" height="280" viewBox="0 0 264 280">
  <defs>
    <clipPath id="clip-path">
      <path id="Body" d="M0,244v-9a72,72,0,0,1,72-72h4V144.611a56.038,56.038,0,0,1-31.694-44.73A12,12,0,0,1,34,88V74A12,12,0,0,1,44,62.166V56a56,56,0,0,1,112,0v6.166A12,12,0,0,1,166,74V88a12,12,0,0,1-10.305,11.881A56.038,56.038,0,0,1,124,144.611V163h4a72,72,0,0,1,72,72v9Z" fill="#d0c6ac"/>
    </clipPath>
    <clipPath id="clip-path-2">
      <path id="Clothes" d="M200,80.78H0V71.833A71.947,71.947,0,0,1,67.045,0C67.015.37,67,.749,67,1.128c0,5.738,3.485,11.132,9.812,15.189s14.74,6.291,23.689,6.291,17.361-2.234,23.688-6.291S134,6.866,134,1.128c0-.349-.013-.7-.04-1.052A72.006,72.006,0,0,1,200,71.833v8.947Z" transform="translate(32 29.22)" fill="#e6e6e6"/>
    </clipPath>
    <clipPath id="clip-path-3">
      <rect id="Mask" width="264" height="280" fill="none"/>
    </clipPath>
    <clipPath id="clip-path-5">
      <path id="Clothes-2" data-name="Clothes" d="M200,80.78H0V71.833A71.947,71.947,0,0,1,67.045,0C67.015.37,67,.749,67,1.128c0,5.738,3.485,11.132,9.812,15.189s14.74,6.291,23.689,6.291,17.361-2.234,23.688-6.291S134,6.866,134,1.128c0-.349-.013-.7-.04-1.052A72.006,72.006,0,0,1,200,71.833v8.947Z" transform="translate(32 29.22)" fill="rgba(0,0,0,0.86)"/>
    </clipPath>
    <clipPath id="clip-path-7">
      <path id="Glorious_Beard" data-name="Glorious Beard" d="M60.5,120a46.529,46.529,0,0,1-13.823-2.038,29.976,29.976,0,0,1-10.311-5.418,28.82,28.82,0,0,1-8.556-2.152,22.621,22.621,0,0,1-7.083-4.655,16.177,16.177,0,0,1-2.564-3.7,15.34,15.34,0,0,0-2.345-3.421c-.35-.35-.7-.69-1.031-1.018a26.456,26.456,0,0,1-4.4-5.151A47.645,47.645,0,0,1,6.032,81.141a87.2,87.2,0,0,1-2.46-11.949,33.414,33.414,0,0,1,.084-5.268C3.823,61.258,4,58.5,3.519,56.7c-.834-3.141-1.5-5.935-2.049-8.541A67.367,67.367,0,0,1,.138,29.985,132.546,132.546,0,0,1,2.275,15c.162-.889.329-1.808.49-2.715.05-.284.143-.873.26-1.619C3.569,7.2,4.7,0,5.265,0c.2,8.026.841,16.4,2.066,27.139q.053.461.105.922c.271,2.362.55,4.8.739,7.213.062.8.062,1.636.061,2.525a18.909,18.909,0,0,0,.337,4.446c.652,2.605,3.931,5.18,6.725,6.165a6.2,6.2,0,0,0,2.066.359c3.481,0,6.683-2.973,9.78-5.848a28.043,28.043,0,0,1,5.9-4.631,32.913,32.913,0,0,1,14.209-3.044c3.681,0,8.981.569,13.333,3.282a20.012,20.012,0,0,1,6.144-2.5,30.582,30.582,0,0,1,7.049-.781,32.852,32.852,0,0,1,14.186,3.044,28.041,28.041,0,0,1,5.9,4.631c3.1,2.875,6.3,5.848,9.781,5.848a6.2,6.2,0,0,0,2.066-.359c2.793-.984,6.071-3.56,6.725-6.165a18.911,18.911,0,0,0,.336-4.449c0-.887,0-1.726.061-2.522.189-2.407.468-4.847.739-7.206l0-.017q.052-.456.1-.912c1.223-10.733,1.86-19.1,2.065-27.139.565,0,1.7,7.2,2.239,10.665.117.748.21,1.337.26,1.621.162.913.329,1.83.491,2.718a132.694,132.694,0,0,1,2.138,14.981,67.439,67.439,0,0,1-1.332,18.178c-.546,2.607-1.216,5.4-2.049,8.541-.478,1.8-.3,4.555-.138,7.221a33.412,33.412,0,0,1,.084,5.267,87.121,87.121,0,0,1-2.459,11.949,47.663,47.663,0,0,1-4.351,11.309,26.475,26.475,0,0,1-4.4,5.147c-.335.329-.682.669-1.034,1.022a15.338,15.338,0,0,0-2.347,3.423,16.18,16.18,0,0,1-2.563,3.695,22.628,22.628,0,0,1-7.084,4.655,28.822,28.822,0,0,1-8.556,2.152,29.977,29.977,0,0,1-10.311,5.418A46.529,46.529,0,0,1,60.5,120Zm0-73.219a8.967,8.967,0,0,1-1.743,1.309c-1.109.655-4.557,1.135-8.208,1.643-4.04.562-8.217,1.143-9.369,2a10.822,10.822,0,0,0-3.647,8.413,14.477,14.477,0,0,0,3.343,7.483,15.215,15.215,0,0,0,10.451,5.547,12.8,12.8,0,0,1,18.345,0,15.216,15.216,0,0,0,10.451-5.547,14.477,14.477,0,0,0,3.343-7.483,10.828,10.828,0,0,0-3.647-8.413c-1.153-.862-5.33-1.443-9.37-2-3.651-.508-7.1-.987-8.208-1.643A8.962,8.962,0,0,1,60.5,46.781Z" transform="translate(24 26)"/>
    </clipPath>
    <clipPath id="clip-path-8">
      <path id="Short_Hair" data-name="Short Hair" d="M116.421,91h0a.64.64,0,0,1-.483-.218c-.743-.8-.538-3.657-.416-5.366.042-.594.076-1.063.063-1.3-.163-3.043-1.554-5.481-3.025-8.062-.261-.457-.53-.929-.792-1.406l-.193-.35a100.048,100.048,0,0,1-5.733-11.536,20.269,20.269,0,0,1-.658-2.155,14.539,14.539,0,0,0-.99-2.906c-.633-1.216-2.025-1.934-3.5-2.693A16.842,16.842,0,0,1,98.3,53.6a18.187,18.187,0,0,1-4.93-5.624,7.706,7.706,0,0,1-.431-1.01,5.5,5.5,0,0,0-.671-1.4,4.236,4.236,0,0,1-.515-.759,8.566,8.566,0,0,1-1.213-.6c-.873-.491-1.763-.905-2.623-1.306a21.6,21.6,0,0,1-4.447-2.523c-.1-.075-.355-.329-.655-.623a10.188,10.188,0,0,0-1.609-1.427h-.013a4.98,4.98,0,0,0-1.143.641c-.147.1-.252.166-.275.174-1.73.617-3.439,1.331-5.091,2.021a63.74,63.74,0,0,1-8.511,3.084c-7.435,1.931-15.009,2.4-22.085,2.623-1.143.036-2.162.053-3.114.053a50.064,50.064,0,0,1-8.1-.578c-1.962-.317-3.893-.774-6.034-1.3-.294-.072-.635-.187-1-.309a7.38,7.38,0,0,0-2.091-.5q-.058,0-.115,0a2.423,2.423,0,0,0-2.02,1.112c-.1.109-.209.231-.329.36a72.159,72.159,0,0,0-9.806,13.356A43.951,43.951,0,0,0,6.494,71.106,58.206,58.206,0,0,0,5.25,84.27c-.021,1.211-.042,2.464-.085,3.737a6.747,6.747,0,0,0,.033.767c.074.91.144,1.769-1.195,2.139a1.8,1.8,0,0,1-.482.066,2.153,2.153,0,0,1-1.486-.652c-.8-.793-1-2.527-1.161-3.921-.04-.347-.077-.675-.121-.95a72.238,72.238,0,0,1-.71-9.419A92.029,92.029,0,0,1,.579,62.416a49.292,49.292,0,0,1,3.354-13.2,52.9,52.9,0,0,1,4.955-9.172c1.033-1.523.9-1.646.067-2.444-.225-.215-.505-.482-.827-.838a14.7,14.7,0,0,1-2.821-4.584A16.771,16.771,0,0,1,4.12,25.824,15.6,15.6,0,0,1,5.39,19.839,17.3,17.3,0,0,1,14.366,11a19.22,19.22,0,0,1,6.377-1.389c.583-.057,1.186-.116,1.806-.191A10,10,0,0,0,26.2,8.128c.323-.165.656-.336,1.027-.516A73.73,73.73,0,0,1,40.369,2.869,77.4,77.4,0,0,1,60.255,0a51.487,51.487,0,0,1,8.309.65A50.48,50.48,0,0,1,83.408,5.557,24.633,24.633,0,0,1,88.3,8.839a13.035,13.035,0,0,1,1.258,1.335,11,11,0,0,0,1.474,1.512c.408.32.654.543.817.691.2.182.276.25.376.25a.8.8,0,0,0,.25-.07,6.8,6.8,0,0,1,1.391-.36,7.851,7.851,0,0,1,1.311-.111,9.165,9.165,0,0,1,7.058,3.625,8.157,8.157,0,0,1,.874,1.687,5.911,5.911,0,0,0,1.132,1.982,4.215,4.215,0,0,0,2.2.384,7.513,7.513,0,0,1,1.435.116,9.936,9.936,0,0,1,5.214,3.291,12.468,12.468,0,0,1,2.643,5.522,16.008,16.008,0,0,1,.155,5.439,11.166,11.166,0,0,1-.687,2.31,6.564,6.564,0,0,0-.642,2.852,10.987,10.987,0,0,0,1.385,3.473c.313.593.609,1.152.814,1.653a51.82,51.82,0,0,1,2.487,7.491,62.439,62.439,0,0,1,1.518,9.855,73.578,73.578,0,0,1-.469,15.916q-.071.554-.14,1.109a44.406,44.406,0,0,1-1.254,6.977c-.036.124-.1.368-.182.676-.356,1.349-1.016,3.855-1.362,4.127A1.637,1.637,0,0,1,116.421,91ZM20.442,42.96c.334,0,.579,0,.728.011.07.007.106.017.108.029s-.008.014-.027.022c.067-.011.1-.019.1-.027s-.062-.018-.183-.024c-.093-.009-.249-.014-.463-.014q-.162,0-.371,0Z" transform="translate(73 9)"/>
    </clipPath>
  </defs>
  <g id="Group_31" data-name="Group 31" transform="translate(1278.5 -5072.5)">
    <g id="Avataaar_Default" data-name="Avataaar/Default" transform="translate(-1278.5 5072.5)">
      <g id="Body-3" data-name="Body" transform="translate(32 36)">
        <path id="Body-4" data-name="Body" d="M0,244v-9a72,72,0,0,1,72-72h4V144.611a56.038,56.038,0,0,1-31.694-44.73A12,12,0,0,1,34,88V74A12,12,0,0,1,44,62.166V56a56,56,0,0,1,112,0v6.166A12,12,0,0,1,166,74V88a12,12,0,0,1-10.305,11.881A56.038,56.038,0,0,1,124,144.611V163h4a72,72,0,0,1,72,72v9Z" fill="#d0c6ac"/>
        <g id="Body-5" data-name="Body" clip-path="url(#clip-path)">
          <g id="_Skin" data-name="ðŸŽ¨ Skin" transform="translate(-32)">
            <rect id="Color" width="264" height="244" fill="#d08b5b"/>
          </g>
          <path id="Neck_Shadow" data-name="Neck Shadow" d="M56,79A55.825,55.825,0,0,1,16.4,62.6,55.825,55.825,0,0,1,0,23V15.477a56,56,0,0,0,112-.451V23A56.063,56.063,0,0,1,77.8,74.6,55.65,55.65,0,0,1,56,79Z" transform="translate(44 79)" fill="rgba(0,0,0,0.1)"/>
        </g>
      </g>
      <g id="_Clothes" data-name="ðŸ‘” Clothes" transform="translate(0 170)">
        <g id="Group_7" data-name="Group 7">
          <path id="Clothes-3" data-name="Clothes" d="M200,80.78H0V71.833A71.947,71.947,0,0,1,67.045,0C67.015.37,67,.749,67,1.128c0,5.738,3.485,11.132,9.812,15.189s14.74,6.291,23.689,6.291,17.361-2.234,23.688-6.291S134,6.866,134,1.128c0-.349-.013-.7-.04-1.052A72.006,72.006,0,0,1,200,71.833v8.947Z" transform="translate(32 29.22)" fill="#e6e6e6"/>
          <g id="Mask_Group_7" data-name="Mask Group 7" clip-path="url(#clip-path-2)">
            <g id="_Color_Fabric" data-name="â†³ Color Fabric">
              <rect id="_Color" data-name="ðŸ–Color" width="264" height="110" fill="#e6e6e6"/>
            </g>
            <g id="Shadowy" transform="translate(92 4)" opacity="0.6">
              <ellipse id="Hola_" data-name="Hola ðŸ‘‹ðŸ¼" cx="39.635" cy="26.914" rx="39.635" ry="26.914" transform="translate(0.865 0.934)" fill="rgba(0,0,0,0.16)"/>
            </g>
          </g>
        </g>
      </g>
      <g id="Face" transform="translate(76 82)">
        <g id="_Mouth" data-name="ðŸ‘„ Mouth" transform="translate(2 52)">
          <rect id="Mouth_Default_background" data-name="Mouth/Default background" width="108" height="44" fill="none"/>
          <path id="Mouth" d="M0,0A14,14,0,0,0,14,14h0A14,14,0,0,0,28,0" transform="translate(40 15)" fill="rgba(0,0,0,0.7)"/>
        </g>
        <g id="_Nose" data-name="ðŸ‘ƒðŸ½ Nose" transform="translate(28 40)">
          <rect id="Nose_Default_background" data-name="Nose/Default background" width="56" height="24" fill="none"/>
          <path id="Nose" d="M0,0C0,4.418,5.373,8,12,8h0c6.627,0,12-3.582,12-8" transform="translate(16 8)" fill="rgba(0,0,0,0.16)"/>
        </g>
        <g id="_Eyes" data-name="ðŸ‘ Eyes" transform="translate(0 8)">
          <rect id="Eyes_Default_background" data-name="Eyes/Default ðŸ˜€ background" width="112" height="44" fill="none"/>
          <circle id="Eye" cx="6" cy="6" r="6" transform="translate(24 16)" fill="rgba(0,0,0,0.6)"/>
          <circle id="Eye-2" data-name="Eye" cx="6" cy="6" r="6" transform="translate(76 16)" fill="rgba(0,0,0,0.6)"/>
        </g>
        <g id="_Eyebrow" data-name="âœï¸ Eyebrow">
          <g id="I_Browse" data-name="I Browse" transform="translate(12 6)">
            <path id="Eyebrow" d="M3.63,11.08c3.915-5.509,14.648-8.6,23.893-6.327A2,2,0,1,0,28.477.868C17.741-1.768,5.312,1.809.37,8.763A2,2,0,0,0,3.63,11.08Z" transform="translate(0 0.078)" fill="rgba(0,0,0,0.6)"/>
            <path id="Eyebrow-2" data-name="Eyebrow" d="M-3.63,11.08c-3.915-5.509-14.648-8.6-23.893-6.327a2,2,0,0,1-2.419-1.465A2,2,0,0,1-28.477.868C-17.741-1.768-5.312,1.809-.37,8.763a2,2,0,0,1-.472,2.789A2,2,0,0,1-3.63,11.08Z" transform="translate(88 0.078)" fill="rgba(0,0,0,0.6)"/>
          </g>
        </g>
      </g>
      <g id="Top">
        <rect id="Mask-3" data-name="Mask" width="264" height="280" fill="none"/>
      </g>
    </g>
    <g id="Avataaar_Default-2" data-name="Avataaar/Default" transform="translate(-1278.5 5072.5)">
      <g id="Body-6" data-name="Body" transform="translate(32 36)">
        <path id="Body-7" data-name="Body" d="M0,244v-9a72,72,0,0,1,72-72h4V144.611a56.038,56.038,0,0,1-31.694-44.73A12,12,0,0,1,34,88V74A12,12,0,0,1,44,62.166V56a56,56,0,0,1,112,0v6.166A12,12,0,0,1,166,74V88a12,12,0,0,1-10.305,11.881A56.038,56.038,0,0,1,124,144.611V163h4a72,72,0,0,1,72,72v9Z" fill="#d0c6ac"/>
        <g id="Body-8" data-name="Body" clip-path="url(#clip-path)">
          <g id="_Skin-2" data-name="ðŸŽ¨ Skin" transform="translate(-32)">
            <rect id="Color-2" data-name="Color" width="264" height="244" fill="#d08b5b"/>
          </g>
          <path id="Neck_Shadow-2" data-name="Neck Shadow" d="M56,79A55.825,55.825,0,0,1,16.4,62.6,55.825,55.825,0,0,1,0,23V15.477a56,56,0,0,0,112-.451V23A56.063,56.063,0,0,1,77.8,74.6,55.65,55.65,0,0,1,56,79Z" transform="translate(44 79)" fill="rgba(0,0,0,0.1)"/>
        </g>
      </g>
      <g id="_Clothes-2" data-name="ðŸ‘” Clothes" transform="translate(0 170)">
        <g id="Group_7-2" data-name="Group 7">
          <path id="Clothes-4" data-name="Clothes" d="M200,80.78H0V71.833A71.947,71.947,0,0,1,67.045,0C67.015.37,67,.749,67,1.128c0,5.738,3.485,11.132,9.812,15.189s14.74,6.291,23.689,6.291,17.361-2.234,23.688-6.291S134,6.866,134,1.128c0-.349-.013-.7-.04-1.052A72.006,72.006,0,0,1,200,71.833v8.947Z" transform="translate(32 29.22)" fill="rgba(0,0,0,0.86)"/>
          <g id="Mask_Group_7-2" data-name="Mask Group 7" clip-path="url(#clip-path-5)">
            <g id="_Color_Fabric-2" data-name="â†³ Color Fabric">
              <rect id="_Color-2" data-name="ðŸ–Color" width="264" height="110" fill="rgba(0,0,0,0.86)"/>
            </g>
            <g id="Shadowy-2" data-name="Shadowy" transform="translate(92 4)" opacity="0.6">
              <ellipse id="Hola_2" data-name="Hola ðŸ‘‹ðŸ¼" cx="39.635" cy="26.914" rx="39.635" ry="26.914" transform="translate(0.865 0.934)" fill="rgba(0,0,0,0.86)"/>
            </g>
          </g>
        </g>
      </g>
      <g id="Face-2" data-name="Face" transform="translate(76 82)">
        <g id="_Mouth-2" data-name="ðŸ‘„ Mouth" transform="translate(2 52)">
          <rect id="Mouth_Default_background-2" data-name="Mouth/Default background" width="108" height="44" fill="none"/>
          <path id="Mouth-2" data-name="Mouth" d="M0,0A14,14,0,0,0,14,14h0A14,14,0,0,0,28,0" transform="translate(40 15)" fill="rgba(0,0,0,0.7)"/>
        </g>
        <g id="_Nose-2" data-name="ðŸ‘ƒðŸ½ Nose" transform="translate(28 40)">
          <rect id="Nose_Default_background-2" data-name="Nose/Default background" width="56" height="24" fill="none"/>
          <path id="Nose-2" data-name="Nose" d="M0,0C0,4.418,5.373,8,12,8h0c6.627,0,12-3.582,12-8" transform="translate(16 8)" fill="rgba(0,0,0,0.16)"/>
        </g>
        <g id="_Eyes-2" data-name="ðŸ‘ Eyes" transform="translate(0 8)">
          <rect id="Eyes_Default_background-2" data-name="Eyes/Default ðŸ˜€ background" width="112" height="44" fill="none"/>
          <circle id="Eye-3" data-name="Eye" cx="6" cy="6" r="6" transform="translate(24 16)" fill="rgba(0,0,0,0.6)"/>
          <circle id="Eye-4" data-name="Eye" cx="6" cy="6" r="6" transform="translate(76 16)" fill="rgba(0,0,0,0.6)"/>
        </g>
        <g id="_Eyebrow-2" data-name="âœï¸ Eyebrow">
          <g id="I_Browse-2" data-name="I Browse" transform="translate(12 6)">
            <path id="Eyebrow-3" data-name="Eyebrow" d="M3.63,11.08c3.915-5.509,14.648-8.6,23.893-6.327A2,2,0,1,0,28.477.868C17.741-1.768,5.312,1.809.37,8.763A2,2,0,0,0,3.63,11.08Z" transform="translate(0 0.078)" fill="rgba(0,0,0,0.6)"/>
            <path id="Eyebrow-4" data-name="Eyebrow" d="M-3.63,11.08c-3.915-5.509-14.648-8.6-23.893-6.327a2,2,0,0,1-2.419-1.465A2,2,0,0,1-28.477.868C-17.741-1.768-5.312,1.809-.37,8.763a2,2,0,0,1-.472,2.789A2,2,0,0,1-3.63,11.08Z" transform="translate(88 0.078)" fill="rgba(0,0,0,0.6)"/>
          </g>
        </g>
      </g>
      <g id="Top-4" data-name="Top">
        <rect id="Mask-4" data-name="Mask" width="264" height="280" fill="none"/>
      </g>
    </g>
    <g id="Facial_Hair_Beard_Magestic" data-name="Facial Hair/Beard Magestic" transform="translate(-1206.499 5166.5)">
      <g id="Group_11" data-name="Group 11" transform="translate(-24.001 -26)">
        <path id="Glorious_Beard-2" data-name="Glorious Beard" d="M60.5,120a46.529,46.529,0,0,1-13.823-2.038,29.976,29.976,0,0,1-10.311-5.418,28.82,28.82,0,0,1-8.556-2.152,22.621,22.621,0,0,1-7.083-4.655,16.177,16.177,0,0,1-2.564-3.7,15.34,15.34,0,0,0-2.345-3.421c-.35-.35-.7-.69-1.031-1.018a26.456,26.456,0,0,1-4.4-5.151A47.645,47.645,0,0,1,6.032,81.141a87.2,87.2,0,0,1-2.46-11.949,33.414,33.414,0,0,1,.084-5.268C3.823,61.258,4,58.5,3.519,56.7c-.834-3.141-1.5-5.935-2.049-8.541A67.367,67.367,0,0,1,.138,29.985,132.546,132.546,0,0,1,2.275,15c.162-.889.329-1.808.49-2.715.05-.284.143-.873.26-1.619C3.569,7.2,4.7,0,5.265,0c.2,8.026.841,16.4,2.066,27.139q.053.461.105.922c.271,2.362.55,4.8.739,7.213.062.8.062,1.636.061,2.525a18.909,18.909,0,0,0,.337,4.446c.652,2.605,3.931,5.18,6.725,6.165a6.2,6.2,0,0,0,2.066.359c3.481,0,6.683-2.973,9.78-5.848a28.043,28.043,0,0,1,5.9-4.631,32.913,32.913,0,0,1,14.209-3.044c3.681,0,8.981.569,13.333,3.282a20.012,20.012,0,0,1,6.144-2.5,30.582,30.582,0,0,1,7.049-.781,32.852,32.852,0,0,1,14.186,3.044,28.041,28.041,0,0,1,5.9,4.631c3.1,2.875,6.3,5.848,9.781,5.848a6.2,6.2,0,0,0,2.066-.359c2.793-.984,6.071-3.56,6.725-6.165a18.911,18.911,0,0,0,.336-4.449c0-.887,0-1.726.061-2.522.189-2.407.468-4.847.739-7.206l0-.017q.052-.456.1-.912c1.223-10.733,1.86-19.1,2.065-27.139.565,0,1.7,7.2,2.239,10.665.117.748.21,1.337.26,1.621.162.913.329,1.83.491,2.718a132.694,132.694,0,0,1,2.138,14.981,67.439,67.439,0,0,1-1.332,18.178c-.546,2.607-1.216,5.4-2.049,8.541-.478,1.8-.3,4.555-.138,7.221a33.412,33.412,0,0,1,.084,5.267,87.121,87.121,0,0,1-2.459,11.949,47.663,47.663,0,0,1-4.351,11.309,26.475,26.475,0,0,1-4.4,5.147c-.335.329-.682.669-1.034,1.022a15.338,15.338,0,0,0-2.347,3.423,16.18,16.18,0,0,1-2.563,3.695,22.628,22.628,0,0,1-7.084,4.655,28.822,28.822,0,0,1-8.556,2.152,29.977,29.977,0,0,1-10.311,5.418A46.529,46.529,0,0,1,60.5,120Zm0-73.219a8.967,8.967,0,0,1-1.743,1.309c-1.109.655-4.557,1.135-8.208,1.643-4.04.562-8.217,1.143-9.369,2a10.822,10.822,0,0,0-3.647,8.413,14.477,14.477,0,0,0,3.343,7.483,15.215,15.215,0,0,0,10.451,5.547,12.8,12.8,0,0,1,18.345,0,15.216,15.216,0,0,0,10.451-5.547,14.477,14.477,0,0,0,3.343-7.483,10.828,10.828,0,0,0-3.647-8.413c-1.153-.862-5.33-1.443-9.37-2-3.651-.508-7.1-.987-8.208-1.643A8.962,8.962,0,0,1,60.5,46.781Z" transform="translate(24 26)" fill="#5e7aa9"/>
        <g id="Mask_Group_11" data-name="Mask Group 11" clip-path="url(#clip-path-7)">
          <g id="_Facial_Hair_Color" data-name="â†³ âœ‚ï¸ Facial Hair Color">
            <rect id="Color-3" data-name="Color" width="168" height="152"/>
          </g>
        </g>
      </g>
    </g>
    <g id="Top__Resources_Prescription_02" data-name="Top/_Resources/Prescription 02" transform="translate(-1212.5 5160.5)">
      <g id="Wayfarers" transform="translate(6 7)">
        <path id="Left" d="M25,41H22.242C8.315,41,0,33.337,0,20.5,0,10.127,1.817,0,23.53,0h2.94C48.183,0,50,10.127,50,20.5,50,32.57,39.72,41,25,41ZM23.386,6C4,6,4,12.841,4,21.5,4,28.572,7.117,37,21.971,37H25c12.364,0,21-6.373,21-15.5C46,12.841,46,6,26.615,6Z" transform="translate(9)" fill="#252c2f"/>
        <path id="Right" d="M25,41H22.242C8.315,41,0,33.337,0,20.5,0,10.127,1.817,0,23.53,0h2.94C48.183,0,50,10.127,50,20.5,50,32.57,39.72,41,25,41ZM23.386,6C4,6,4,12.841,4,21.5,4,28.572,7.117,37,21.971,37H25c12.364,0,21-6.373,21-15.5C46,12.841,46,6,26.615,6Z" transform="translate(71)" fill="#252c2f"/>
        <path id="Stuff" d="M2.955,5.772C3.646,5.1,11.21,0,32.5,0,50.351,0,54.13,1.853,59.85,4.652l.419.207a17.013,17.013,0,0,0,4.81.907A17,17,0,0,0,69.642,4.9C76.17,1.722,82.561,0,97.5,0c21.29,0,28.854,5.1,29.545,5.772A2.918,2.918,0,0,1,130,8.657v2.886a2.918,2.918,0,0,1-2.955,2.886s-6.9,0-6.9,2.886-1.962-4.176-1.962-5.772V8.732A52.781,52.781,0,0,0,97.5,4.786c-11.842,0-17.739,2.1-22.8,4.185l.057.136,0,1.986-2.217,5.35L69.8,15.361a13.034,13.034,0,0,0-1.5-.451,13.87,13.87,0,0,0-5.992-.276,7.915,7.915,0,0,0-1.891.632L57.77,16.558,55.127,11.4,55.244,9.1l.081-.195C50.962,6.874,46.939,4.786,32.5,4.786A52.791,52.791,0,0,0,11.818,8.731v2.812c0,1.6-2.955,8.657-2.955,5.772s-5.909-2.886-5.909-2.886A2.92,2.92,0,0,1,0,11.543V8.657A2.92,2.92,0,0,1,2.955,5.772Z" fill="#252c2f"/>
      </g>
    </g>
    <g id="Top_Short_Hair_Short_Curly" data-name="Top/Short Hair/Short Curly" transform="translate(-1205.5 5085.5)">
      <g id="Group_27" data-name="Group 27" transform="translate(-73 -9)">
        <path id="Short_Hair-2" data-name="Short Hair" d="M116.421,91h0a.64.64,0,0,1-.483-.218c-.743-.8-.538-3.657-.416-5.366.042-.594.076-1.063.063-1.3-.163-3.043-1.554-5.481-3.025-8.062-.261-.457-.53-.929-.792-1.406l-.193-.35a100.048,100.048,0,0,1-5.733-11.536,20.269,20.269,0,0,1-.658-2.155,14.539,14.539,0,0,0-.99-2.906c-.633-1.216-2.025-1.934-3.5-2.693A16.842,16.842,0,0,1,98.3,53.6a18.187,18.187,0,0,1-4.93-5.624,7.706,7.706,0,0,1-.431-1.01,5.5,5.5,0,0,0-.671-1.4,4.236,4.236,0,0,1-.515-.759,8.566,8.566,0,0,1-1.213-.6c-.873-.491-1.763-.905-2.623-1.306a21.6,21.6,0,0,1-4.447-2.523c-.1-.075-.355-.329-.655-.623a10.188,10.188,0,0,0-1.609-1.427h-.013a4.98,4.98,0,0,0-1.143.641c-.147.1-.252.166-.275.174-1.73.617-3.439,1.331-5.091,2.021a63.74,63.74,0,0,1-8.511,3.084c-7.435,1.931-15.009,2.4-22.085,2.623-1.143.036-2.162.053-3.114.053a50.064,50.064,0,0,1-8.1-.578c-1.962-.317-3.893-.774-6.034-1.3-.294-.072-.635-.187-1-.309a7.38,7.38,0,0,0-2.091-.5q-.058,0-.115,0a2.423,2.423,0,0,0-2.02,1.112c-.1.109-.209.231-.329.36a72.159,72.159,0,0,0-9.806,13.356A43.951,43.951,0,0,0,6.494,71.106,58.206,58.206,0,0,0,5.25,84.27c-.021,1.211-.042,2.464-.085,3.737a6.747,6.747,0,0,0,.033.767c.074.91.144,1.769-1.195,2.139a1.8,1.8,0,0,1-.482.066,2.153,2.153,0,0,1-1.486-.652c-.8-.793-1-2.527-1.161-3.921-.04-.347-.077-.675-.121-.95a72.238,72.238,0,0,1-.71-9.419A92.029,92.029,0,0,1,.579,62.416a49.292,49.292,0,0,1,3.354-13.2,52.9,52.9,0,0,1,4.955-9.172c1.033-1.523.9-1.646.067-2.444-.225-.215-.505-.482-.827-.838a14.7,14.7,0,0,1-2.821-4.584A16.771,16.771,0,0,1,4.12,25.824,15.6,15.6,0,0,1,5.39,19.839,17.3,17.3,0,0,1,14.366,11a19.22,19.22,0,0,1,6.377-1.389c.583-.057,1.186-.116,1.806-.191A10,10,0,0,0,26.2,8.128c.323-.165.656-.336,1.027-.516A73.73,73.73,0,0,1,40.369,2.869,77.4,77.4,0,0,1,60.255,0a51.487,51.487,0,0,1,8.309.65A50.48,50.48,0,0,1,83.408,5.557,24.633,24.633,0,0,1,88.3,8.839a13.035,13.035,0,0,1,1.258,1.335,11,11,0,0,0,1.474,1.512c.408.32.654.543.817.691.2.182.276.25.376.25a.8.8,0,0,0,.25-.07,6.8,6.8,0,0,1,1.391-.36,7.851,7.851,0,0,1,1.311-.111,9.165,9.165,0,0,1,7.058,3.625,8.157,8.157,0,0,1,.874,1.687,5.911,5.911,0,0,0,1.132,1.982,4.215,4.215,0,0,0,2.2.384,7.513,7.513,0,0,1,1.435.116,9.936,9.936,0,0,1,5.214,3.291,12.468,12.468,0,0,1,2.643,5.522,16.008,16.008,0,0,1,.155,5.439,11.166,11.166,0,0,1-.687,2.31,6.564,6.564,0,0,0-.642,2.852,10.987,10.987,0,0,0,1.385,3.473c.313.593.609,1.152.814,1.653a51.82,51.82,0,0,1,2.487,7.491,62.439,62.439,0,0,1,1.518,9.855,73.578,73.578,0,0,1-.469,15.916q-.071.554-.14,1.109a44.406,44.406,0,0,1-1.254,6.977c-.036.124-.1.368-.182.676-.356,1.349-1.016,3.855-1.362,4.127A1.637,1.637,0,0,1,116.421,91ZM20.442,42.96c.334,0,.579,0,.728.011.07.007.106.017.108.029s-.008.014-.027.022c.067-.011.1-.019.1-.027s-.062-.018-.183-.024c-.093-.009-.249-.014-.463-.014q-.162,0-.371,0Z" transform="translate(73 9)"/>
        <g id="Mask_Group_28" data-name="Mask Group 28" clip-path="url(#clip-path-8)">
          <g id="_Hair_Color" data-name="â†³ ðŸ’ˆHair Color" transform="translate(1)">
            <rect id="Color-4" data-name="Color" width="264" height="280"/>
          </g>
        </g>
      </g>
    </g>
  </g>
</svg>
